# xmcd
#
# Track frame offsets: 
#        150
#        13878
#        27222
#        46281
#        60923
#        76153
#        86423
#        99285
#        115672
#        129964
#        150138
#        164192
#        178115
#        194887
#        210631
#        224941
#        240468
#
# Disc length: 3409 seconds
#
# Revision: 0
# Processed by: cddbd v1.5.2PL0 Copyright (c) Steve Scherf et al.
# Submitted via: ExactAudioCopy v0.99pb4
#
DISCID=df0d4f11
DTITLE=Kris Kristofferson - Singer - Songwriter Vol. 1
DYEAR=1991
DGENRE=Outlaw Country
TTITLE0=Jody and the Kid
TTITLE1=From the Bottle to the Bottom
TTITLE2=Me and Bobby McGee
TTITLE3=The Taker
TTITLE4=For the Good Times
TTITLE5=Help Me Make It Through the Night
TTITLE6=Once More With Feeling
TTITLE7=Come Sundown
TTITLE8=I'd Rather Be Sorry with Rita Coolidge
TTITLE9=Sunday Mornin' Comin' Down
TTITLE10=Nobody Wins
TTITLE11=Stranger
TTITLE12=Loving Her Was Easier (Than Anything I'll Ever Do Again)
TTITLE13=If You Don't Like Hank Williams
TTITLE14=Josie
TTITLE15=Why Me
TTITLE16=They Killed Him with the Memphis Tennessee Police Choir
EXTD=
EXTT0=
EXTT1=
EXTT2=
EXTT3=
EXTT4=
EXTT5=
EXTT6=
EXTT7=
EXTT8=
EXTT9=
EXTT10=
EXTT11=
EXTT12=
EXTT13=
EXTT14=
EXTT15=
EXTT16=
PLAYORDER=
